Coordinates
version=1
nRows=17
nColumns=36
inDegrees=yes

Units are S.I. units (second, meters, Newtons, ...)
If the header above contains a line with 'inDegrees', this indicates whether rotational values are in degrees (yes) or radians (no).

endheader
time	pelvis_tilt	pelvis_list	pelvis_rotation	pelvis_tx	pelvis_ty	pelvis_tz	hip_flexion_r	hip_adduction_r	hip_rotation_r	knee_angle_r	knee_angle_r_beta	ankle_angle_r	subtalar_angle_r	mtp_angle_r	hip_flexion_l	hip_adduction_l	hip_rotation_l	knee_angle_l	knee_angle_l_beta	ankle_angle_l	subtalar_angle_l	mtp_angle_l	lumbar_extension	lumbar_bending	lumbar_rotation	arm_flex_r	arm_add_r	arm_rot_r	elbow_flex_r	pro_sup_r	arm_flex_l	arm_add_l	arm_rot_l	elbow_flex_l	pro_sup_l
      0.98000000	     -5.47163691	      7.47888191	      6.45559112	     -0.77760119	      1.43303456	     -0.54452599	      8.96202973	     -4.90254541	     -1.30130884	     48.37265638	      0.84426212	     -2.25489100	    -17.61716066	     -5.02573650	     32.15576335	     -0.39743292	     -7.24149405	     62.67424829	      1.09387199	      3.16003710	    -11.07970169	     -5.02573650	     -2.60546382	     -3.79371046	    -13.91837017	     64.21108145	    -22.51695065	     20.97069983	    103.69632179	    112.01374441	     45.58926228	    -60.45395234	     -0.34425733	    112.04717138	     83.29857425
      0.99000000	     -5.04521144	      7.37949078	      6.31690835	     -0.76631800	      1.43853680	     -0.54479017	      9.88280880	     -5.15308730	     -1.80606565	     49.92142426	      0.87129322	     -1.80865774	    -19.53479351	     -5.41005017	     31.64171582	     -0.50290228	     -7.31313566	     61.01578770	      1.06492639	      1.77590592	    -11.34309373	     -5.41005017	     -3.11437231	     -3.53316236	    -14.41776541	     63.20268360	    -23.60785376	     21.53384139	    105.08954572	    112.20077917	     40.23024857	    -61.55816200	     -5.05400797	    113.75605865	     84.03781253
      1.00000000	     -4.49076610	      7.28892576	      6.15204775	     -0.75516538	      1.44318752	     -0.54487089	     10.59374835	     -5.36957704	     -2.25976987	     51.00872495	      0.89027020	     -1.13117350	    -20.97306266	     -5.43450139	     30.94960744	     -0.64951068	     -7.39229636	     59.29397689	      1.03487512	      0.75037452	    -10.85004357	     -5.43450139	     -3.77174190	     -3.45693049	    -13.82128815	     61.49105576	    -26.01777889	     21.17840202	    107.25295118	    112.30761795	     38.24563379	    -61.52912402	     -6.09006915	    114.51938335	     84.12792467
      1.01000000	     -3.97392415	      7.16222522	      5.98013554	     -0.74399947	      1.44693464	     -0.54491461	     11.22124115	     -5.48781976	     -2.60071421	     51.49177030	      0.89870093	     -0.64564812	    -22.15325578	     -5.45351302	     30.24845886	     -0.80819639	     -7.46230450	     57.45843503	      1.00283887	     -0.45711588	    -10.44763860	     -5.45351302	     -4.39694649	     -3.31687834	    -13.23622503	     59.77746353	    -28.42653874	     20.77430197	    109.13895732	    112.37345212	     35.94899059	    -61.52824677	     -7.25494815	    115.22090920	     84.20137956
      1.02000000	     -3.54424317	      6.98574340	      5.74489758	     -0.73307563	      1.44965394	     -0.54526211	     11.93502463	     -5.57711541	     -2.89106496	     51.52994876	      0.89936727	     -1.07267607	    -23.23808442	     -5.75435858	     29.61684847	     -0.86238672	     -7.46458097	     55.45013816	      0.96778748	     -3.14921868	    -12.32511133	     -5.75435858	     -5.21760035	     -2.67856484	    -15.39138416	     60.45057982	    -27.73229038	     22.76616097	    108.68281594	    111.84833252	     23.50930256	    -63.42515403	    -19.61659260	    118.22866061	     84.14011520
      1.03000000	     -3.06163156	      6.82720882	      5.48691959	     -0.72207236	      1.45153821	     -0.54536283	     12.45920488	     -5.68871365	     -3.22796774	     51.00813666	      0.89025993	     -1.41690136	    -23.56226554	     -6.01822199	     28.85867598	     -0.99809244	     -7.56642069	     53.40852890	      0.93215468	     -4.59655115	    -12.42916339	     -6.01822199	     -5.97439545	     -2.42299841	    -15.62026915	     59.58960158	    -29.24797428	     23.01300335	    109.57603721	    111.77399086	     17.74636970	    -63.67529083	    -24.63879748	    119.64024565	     83.65707464
      1.04000000	     -2.60456503	      6.68183118	      5.19790398	     -0.71109799	      1.45248449	     -0.54554107	     12.91953431	     -5.83388302	     -3.58684896	     50.01380890	      0.87290564	     -1.84067421	    -22.96752134	     -6.25723371	     28.07339691	     -1.09866790	     -7.68915152	     51.26931573	      0.89481836	     -6.15963033	    -12.67772654	     -6.25723371	     -6.71543237	     -2.20314868	    -15.66169135	     58.77747974	    -30.98845037	     23.19024968	    110.36350314	    111.64834324	     12.62475359	    -63.71142965	    -29.02809280	    120.83370262	     83.22630263
      1.05000000	     -2.19899884	      6.55542724	      4.84121378	     -0.70008673	      1.45243494	     -0.54561282	     13.36543026	     -5.89134664	     -3.73647896	     48.62659316	      0.84869415	     -2.80815810	    -22.12896035	     -6.30811745	     27.29678449	     -1.21874053	     -7.92001662	     49.08502248	      0.85669526	     -7.40168168	    -12.64303807	     -6.30811745	     -7.35466224	     -2.07750299	    -14.94366850	     57.41270666	    -33.49427380	     22.61078546	    111.49102674	    111.59240805	     10.25010763	    -63.51323583	    -30.58875349	    121.41675963	     83.15769483
      1.06000000	     -2.05842418	      6.30459849	      4.47644109	     -0.68904308	      1.45102286	     -0.54568980	     14.04719531	     -5.74397689	     -3.73591565	     46.92097042	      0.81892542	     -3.89279626	    -20.77835359	     -6.31770429	     26.78854511	     -1.43740313	     -8.08200557	     46.86856289	      0.81801074	     -8.18734763	    -12.19592386	     -6.31770429	     -7.51374003	     -1.82453193	    -14.04773662	     56.21290308	    -36.20215156	     22.62744407	    112.17161157	    111.51707172	      8.73046709	    -63.21007166	    -31.09620636	    121.59841676	     83.15041916
      1.07000000	     -1.78156045	      6.21493844	      4.01322498	     -0.67795584	      1.44873701	     -0.54575310	     14.57399353	     -5.81501238	     -3.78793473	     45.07284754	      0.78666959	     -5.21759836	    -18.81154935	     -6.60607412	     26.03207376	     -1.45485437	     -8.34775856	     44.41787862	      0.77523823	    -10.42972693	    -13.32565291	     -6.60607412	     -8.37138776	     -1.49397783	    -16.05546289	     57.66034827	    -35.79824419	     24.95977363	    111.44706010	    110.96389030	     -5.14982715	    -63.19481754	    -45.31565962	    124.30439944	     82.67241315
      1.08000000	     -1.63408979	      5.99905129	      3.56886245	     -0.66675156	      1.44525163	     -0.54579359	     15.12020298	     -5.73731078	     -3.89259425	     42.88563619	      0.74849555	     -6.70088945	    -16.50849090	     -6.62038580	     25.43117212	     -1.67561729	     -8.68923196	     42.06124703	      0.73410725	    -11.35695895	    -12.91838057	     -6.62038580	     -8.67740400	     -1.29767784	    -15.00960430	     56.73198127	    -38.79719276	     24.84886208	    112.48561267	    110.93234345	     -6.51955930	    -63.09659499	    -46.26188625	    124.69185974	     82.67697915
      1.09000000	     -1.64644684	      5.74569201	      3.19794203	     -0.65536290	      1.44047200	     -0.54596158	     15.72169214	     -5.58924709	     -3.95922474	     40.49271370	      0.70673118	     -8.27559168	    -14.05153356	     -6.62930958	     24.96353426	     -1.87249708	     -8.93502741	     39.60526713	      0.69124231	    -12.14237017	    -12.54036936	     -6.62930958	     -8.68639098	     -1.04165652	    -14.04324549	     55.96707756	    -41.77812298	     25.05538593	    113.20937408	    110.88549796	     -7.88818321	    -63.07933489	    -47.17400786	    124.95770776	     82.68888557
      1.10000000	     -1.45320289	      5.61446215	      2.87622394	     -0.64379980	      1.43464516	     -0.54633951	     16.02171920	     -5.67303125	     -4.36071467	     38.06953963	      0.66443881	     -9.34932039	    -10.84282812	     -6.83441968	     24.20411384	     -1.84664887	     -9.09479235	     36.96502475	      0.64516139	    -13.80790979	    -13.37964489	     -6.83441968	     -9.29955432	     -0.72493910	    -16.23797934	     58.54165889	    -41.53265269	     28.52205288	    111.95641091	    110.50242470	    -21.18961616	    -61.84041752	    -61.38804940	    127.18338871	     82.44290914
      1.11000000	     -1.43177029	      5.41696504	      2.61714244	     -0.63207815	      1.42752113	     -0.54668800	     16.36242267	     -5.64642412	     -4.78960700	     35.40051919	      0.61785562	    -10.82881276	     -7.75944080	     -6.95889745	     23.62237486	     -1.92188026	     -9.27030146	     34.34499169	      0.59943319	    -14.52556918	    -13.14164454	     -6.95889745	     -9.40478370	     -0.49142298	    -16.21763749	     59.20045357	    -43.72993739	     30.05062491	    112.15953998	    110.43331726	    -25.64049329	    -61.46152192	    -66.21034147	    128.07905677	     81.79780758
      1.12000000	     -1.38808964	      5.20807364	      2.37491981	     -0.62016022	      1.41937615	     -0.54700340	     16.50819572	     -5.56505207	     -5.24319827	     32.47322546	      0.56676470	    -12.51138828	     -4.69206197	     -6.97402487	     22.97114235	     -2.02491330	     -9.51312516	     31.65502577	      0.55248442	    -14.83662801	    -12.57443840	     -6.97402487	     -9.41539670	     -0.29009338	    -15.28135301	     59.05696655	    -47.00073816	     30.63664481	    113.15870192	    110.39990435	    -26.98805556	    -61.92113068	    -67.87999914	    128.47730489	     81.75372833
      1.13000000	     -1.42261277	      5.04777646	      2.18403993	     -0.60810027	      1.40987451	     -0.54739464	     16.70133195	     -5.56184555	     -5.81027317	     29.56495243	      0.51600576	    -14.20644452	     -1.67128412	     -7.06217051	     22.37768552	     -2.04703692	     -9.77533633	     28.88492604	      0.50413706	    -15.12533831	    -11.96479229	     -7.06217051	     -9.40643324	     -0.08494656	    -15.98060685	     60.85789670	    -48.44350677	     33.33469302	    113.00482940	    109.57687530	    -33.78641242	    -61.07601360	    -75.64632021	    129.61966238	     81.36576918
      1.14000000	     -1.34694194	      4.97954252	      2.03669680	     -0.59585746	      1.39938585	     -0.54797956	     16.77745097	     -5.70028209	     -6.56624461	     26.78168260	      0.46742854	    -15.54341618	      1.16073119	     -7.06410228	     21.59592712	     -1.89665403	     -9.84059775	     25.98885268	      0.45359105	    -15.44894361	    -11.17502525	     -7.06410228	     -9.36197163	      0.01295735	    -15.08636254	     61.39935939	    -52.05498687	     34.43633053	    114.06442576	    110.27901902	    -35.28010390	    -61.78142491	    -77.91561479	    129.92888650	     81.54580266
